HIERARCHY
ROOT SimulationBone
{
	OFFSET 0.000000 0.000000 0.000000
	CHANNELS 6 Xposition Yposition Zposition Zrotation Yrotation Xrotation 
	JOINT Hips
	{
		OFFSET 0.000000 0.000000 0.000000
		CHANNELS 6 Xposition Yposition Zposition Zrotation Yrotation Xrotation 
		JOINT LeftUpLeg
		{
			OFFSET 0.103454 1.857841 10.548502
			CHANNELS 3 Zrotation Yrotation Xrotation
			JOINT LeftLeg
			{
				OFFSET 43.500000 -0.000034 -0.000004
				CHANNELS 3 Zrotation Yrotation Xrotation
				JOINT LeftFoot
				{
					OFFSET 42.372192 0.000027 -0.000002
					CHANNELS 3 Zrotation Yrotation Xrotation
					JOINT LeftToe
					{
						OFFSET 17.300003 0.000001 0.000001
						CHANNELS 3 Zrotation Yrotation Xrotation
						End Site
						{
							OFFSET 0.000000 0.000000 0.000000
						}
					}
				}
			}
		}
		JOINT RightUpLeg
		{
			OFFSET 0.103461 1.857837 -10.548502
			CHANNELS 3 Zrotation Yrotation Xrotation
			JOINT RightLeg
			{
				OFFSET 43.500046 -0.000034 0.000013
				CHANNELS 3 Zrotation Yrotation Xrotation
				JOINT RightFoot
				{
					OFFSET 42.372261 0.000004 0.000013
					CHANNELS 3 Zrotation Yrotation Xrotation
					JOINT RightToe
					{
						OFFSET 17.299986 -0.000008 0.000013
						CHANNELS 3 Zrotation Yrotation Xrotation
						End Site
						{
							OFFSET 0.000000 0.000000 0.000000
						}
					}
				}
			}
		}
		JOINT Spine
		{
			OFFSET 6.901964 -2.603740 0.000003
			CHANNELS 3 Zrotation Yrotation Xrotation
			JOINT Spine1
			{
				OFFSET 12.588108 0.000020 -0.000003
				CHANNELS 3 Zrotation Yrotation Xrotation
				JOINT Spine2
				{
					OFFSET 12.343194 -0.000020 0.000000
					CHANNELS 3 Zrotation Yrotation Xrotation
					JOINT Neck
					{
						OFFSET 25.832893 -0.000004 0.000001
						CHANNELS 3 Zrotation Yrotation Xrotation
						JOINT Head
						{
							OFFSET 11.766617 0.000023 0.000000
							CHANNELS 3 Zrotation Yrotation Xrotation
							End Site
							{
								OFFSET 0.000000 0.000000 0.000000
							}
						}
					}
					JOINT LeftShoulder
					{
						OFFSET 19.745911 -1.480362 6.000106
						CHANNELS 3 Zrotation Yrotation Xrotation
						JOINT LeftArm
						{
							OFFSET 11.284124 -0.000010 -0.000029
							CHANNELS 3 Zrotation Yrotation Xrotation
							JOINT LeftForeArm
							{
								OFFSET 33.000050 0.000006 0.000043
								CHANNELS 3 Zrotation Yrotation Xrotation
								JOINT LeftHand
								{
									OFFSET 25.200006 0.000015 0.000002
									CHANNELS 3 Zrotation Yrotation Xrotation
									End Site
									{
										OFFSET 0.000000 0.000000 0.000000
									}
								}
							}
						}
					}
					JOINT RightShoulder
					{
						OFFSET 19.746103 -1.480366 -6.000076
						CHANNELS 3 Zrotation Yrotation Xrotation
						JOINT RightArm
						{
							OFFSET 11.284135 -0.000031 -0.000006
							CHANNELS 3 Zrotation Yrotation Xrotation
							JOINT RightForeArm
							{
								OFFSET 33.000095 0.000024 0.000006
								CHANNELS 3 Zrotation Yrotation Xrotation
								JOINT RightHand
								{
									OFFSET 25.199774 0.000153 0.000421
									CHANNELS 3 Zrotation Yrotation Xrotation
									End Site
									{
										OFFSET 0.000000 0.000000 0.000000
									}
								}
							}
						}
					}
				}
			}
		}
	}
}
MOTION
Frames: 13
Frame Time: 0.033333
232.631820 0.000000 281.126817 0.000000 64.824574 0.000000 1.132913 90.005089 -1.567993 92.077601 -2.583746 -178.762214 166.902516 0.769000 162.635998 -30.209575 -2.588389 -14.939350 83.259815 10.077401 -1.856239 21.454557 0.003115 0.000018 -172.838415 10.041900 -146.674064 -24.321231 -3.788044 23.328713 69.716629 -7.728845 27.913650 21.454553 -0.003091 -0.000000 5.635638 -0.095792 1.069365 1.256535 -0.202476 2.137702 0.938689 -0.189690 2.138884 -0.866757 5.757266 11.431523 -6.334577 -14.112984 16.292422 -163.174913 -70.075111 -18.703899 -5.117132 61.775735 27.195949 -26.990826 -16.202204 1.277182 12.764115 -14.249438 -0.610727 -175.618712 77.527169 5.985587 -29.124849 -46.314724 -14.791772 -46.023662 16.710048 -1.739737 4.806492 -2.255077 -24.456662 
232.413287 0.000000 279.475466 0.000000 68.340606 0.000000 1.677259 89.517822 -1.846838 93.013980 -3.629953 -178.949854 168.497721 2.639200 162.539924 -31.091219 -2.552632 -13.156537 85.024394 9.013598 -0.792159 21.454560 0.003109 0.000019 -173.451616 12.655695 -147.618870 -31.033067 -4.853704 24.757547 66.458553 -7.708834 28.892964 21.454550 -0.003091 0.000000 5.629382 -0.297374 1.075490 1.240252 -0.605543 2.147940 0.922370 -0.592702 2.151553 0.262659 5.711087 11.463187 -5.679426 -14.331463 16.240779 -162.702838 -69.974673 -19.191993 -3.135547 60.835218 29.635825 -24.350106 -15.252280 1.173598 14.654726 -10.165541 -3.619383 -174.401613 77.258920 7.224011 -26.865296 -47.336442 -14.779367 -47.066359 17.055457 -1.794379 5.059033 -1.445460 -22.891357 
232.236177 0.000000 277.719579 0.000000 71.882214 0.000000 2.143121 89.231796 -1.952640 93.964417 -4.011348 -179.221158 170.551340 3.801612 164.239945 -31.173738 -3.293834 -12.168709 86.630131 8.479507 0.174862 21.454560 0.003096 0.000018 -175.281014 14.423295 -150.910516 -38.993509 -5.454793 26.423685 61.345276 -9.843341 23.743840 21.454550 -0.003093 -0.000004 5.673856 -0.389665 1.071373 1.327524 -0.790872 2.138490 1.009625 -0.778086 2.143229 1.179451 5.775441 11.474600 -5.223020 -14.475898 16.203085 -161.842289 -69.826028 -20.081396 -1.013444 59.262922 32.596593 -23.626632 -14.652762 1.124620 14.103325 -5.458890 -1.858337 -172.374891 76.555158 9.287587 -24.260694 -48.357330 -15.006796 -48.393164 17.287436 -1.851213 4.563832 -0.301426 -23.463684 
232.095291 0.000000 275.867049 0.000000 75.420082 0.000000 2.454594 89.118942 -1.889322 94.745213 -4.070946 -179.654286 172.645066 4.811909 166.959931 -30.621227 -3.906304 -11.840901 87.683353 8.324396 0.747991 21.454557 0.003106 0.000018 -178.081910 15.731399 -154.910644 -47.411150 -5.737355 22.847048 59.856315 -10.192429 15.651703 21.454555 -0.003093 0.000002 5.734270 -0.428803 1.004161 1.448150 -0.869456 2.003191 1.130219 -0.857496 2.008401 1.923884 5.883046 11.630721 -5.105887 -14.505367 16.343869 -160.258969 -70.143536 -21.710123 1.322039 57.980383 36.022206 -24.035991 -14.261798 1.105829 11.886247 -1.206107 3.139253 -171.314846 76.053289 10.368391 -21.536420 -49.874205 -15.368291 -49.519514 17.629591 -1.910006 4.154680 1.037541 -23.703436 
231.985433 0.000000 273.925772 0.000000 78.924801 0.000000 2.730108 89.313179 -1.684547 95.510839 -3.565292 179.954669 175.271602 5.421707 170.328881 -28.988358 -4.146242 -11.888539 88.007131 8.380903 1.020592 21.454558 0.003107 0.000017 178.887681 15.935805 -162.478767 -55.191607 -2.390003 14.387826 65.789612 -6.357185 10.949189 21.454551 -0.003089 -0.000001 5.828788 -0.372750 0.848139 1.639198 -0.756923 1.691179 1.321220 -0.746832 1.695716 2.611069 6.268724 11.858315 -5.224762 -14.609155 16.653328 -159.956733 -70.595059 -22.015003 3.933398 56.420897 40.921671 -25.226918 -14.289996 1.126027 9.230999 1.259757 7.928693 -171.107795 75.598754 10.578484 -18.723721 -51.787341 -16.285744 -50.055195 17.973696 -1.950394 4.239960 2.852119 -23.912057 
231.901408 0.000000 271.903641 0.000000 82.368251 0.000000 2.809297 89.497963 -1.340571 96.232515 -2.961966 179.108961 177.996232 5.604215 173.033677 -27.144096 -4.282773 -11.834657 88.141385 8.348479 1.180834 21.454563 0.003093 0.000016 174.779172 14.924196 -168.426441 -61.965819 -1.068713 6.993223 70.133817 -2.147323 8.485018 21.454548 -0.003083 -0.000004 6.008549 -0.312813 0.715716 2.000334 -0.637465 1.426092 1.682310 -0.628994 1.429930 2.783396 6.963085 12.135956 -5.283058 -15.026689 17.143623 -159.643910 -70.862297 -22.333202 5.729636 55.175767 44.365040 -26.811301 -14.201439 1.146491 8.108743 1.175119 9.463143 -170.391117 75.055330 11.310306 -16.540246 -53.429291 -17.324088 -49.723955 17.954962 -1.938337 4.350956 4.651869 -23.880305 
231.838017 0.000000 269.808550 0.000000 85.724822 0.000000 2.819430 89.645187 -0.992149 96.589742 -2.419373 178.335544 -179.395137 5.648403 175.192208 -24.992132 -4.195271 -11.499005 88.166158 8.124284 1.342949 21.454558 0.003105 0.000017 169.827627 13.013494 -173.745027 -67.222660 -0.108220 3.781092 70.130210 0.281340 8.824962 21.454553 -0.003092 -0.000003 6.140120 -0.242300 0.486800 2.265324 -0.493778 0.968878 1.947266 -0.488046 0.971831 2.658777 7.603262 12.546164 -5.184614 -15.558577 17.774587 -159.181889 -71.048338 -22.805918 7.726193 54.555702 47.102286 -28.717728 -14.608981 1.206485 7.749388 0.441055 9.345201 -168.097608 75.290207 13.657589 -15.198667 -55.734531 -18.270831 -48.646096 17.873972 -1.898247 4.559546 5.770035 -24.706871 
231.790065 0.000000 267.648394 0.000000 88.972342 0.000000 2.830262 89.694366 -0.684837 96.876798 -1.985448 177.733393 -176.641341 5.533709 177.587569 -22.602648 -4.340601 -11.223036 88.182721 7.964680 1.597370 21.454558 0.003117 0.000018 165.337597 11.296498 -177.609125 -70.551114 0.857163 3.289358 69.126623 0.447608 8.149624 21.454548 -0.003086 -0.000001 6.264724 -0.188673 0.168415 2.516051 -0.380834 0.332795 2.197970 -0.378952 0.335082 2.639101 8.457585 12.964900 -5.242951 -16.317684 18.524014 -159.111101 -71.197660 -22.876411 9.743152 54.117955 48.984928 -30.630748 -14.959861 1.265747 7.172365 -0.243426 8.815982 -165.986711 75.256657 15.817492 -13.334700 -57.686207 -20.050422 -47.368332 17.917314 -1.860881 4.312178 6.749019 -25.903498 
231.752355 0.000000 265.431067 0.000000 92.092853 0.000000 2.751465 89.795609 -0.448469 96.793759 -1.372848 177.529879 -174.068942 4.980491 -179.613853 -19.820251 -4.588889 -11.034387 87.933768 7.892991 1.910321 21.454557 0.003100 0.000018 161.047009 9.738594 -179.296140 -71.604780 0.578855 3.999594 69.082958 -0.148545 7.927758 21.454558 -0.003097 -0.000001 6.318673 -0.091454 -0.200053 2.624816 -0.178409 -0.402098 2.306731 -0.180950 -0.401028 2.837935 9.713116 13.288940 -5.805714 -17.344046 19.384039 -159.640946 -71.481809 -22.326712 11.376296 53.924873 50.333290 -32.632786 -15.267817 1.326899 5.906849 -1.334077 8.282775 -164.774625 74.654104 17.062012 -10.249727 -58.854613 -22.648889 -46.064408 17.820966 -1.814407 3.254773 7.941411 -27.207958 
231.719690 0.000000 263.164463 0.000000 95.072379 0.000000 2.628778 89.695320 -0.224139 96.492658 -1.010913 177.558626 -172.230924 4.351899 -177.248231 -18.109555 -4.779596 -10.568748 88.078486 7.602005 2.098771 21.454560 0.003093 0.000016 157.101714 8.563804 179.851203 -70.615851 -0.327821 5.514595 69.335204 -1.053124 8.532826 21.454553 -0.003091 0.000004 6.378370 -0.048858 -0.545315 2.744304 -0.084969 -1.091581 2.426280 -0.091714 -1.091058 2.117247 11.044015 13.521240 -5.991625 -17.737197 20.000747 -159.594979 -71.996423 -22.365822 11.948765 54.369580 50.715046 -34.949658 -15.832250 1.414772 5.043523 -1.344459 8.378607 -162.625903 74.112463 19.268220 -6.575893 -59.944301 -26.134250 -44.796424 17.878741 -1.780227 2.843614 9.783885 -27.329884 
231.686874 0.000000 260.856476 0.000000 97.901421 0.000000 2.494139 89.520607 -0.089254 96.337552 -0.623074 177.766331 -170.717928 3.537507 -174.915298 -17.348122 -5.018753 -10.116761 88.705873 7.286857 2.136495 21.454558 0.003102 0.000017 154.107673 7.617498 178.505082 -67.175566 -0.349090 7.317269 69.128707 -2.406137 8.437021 21.454550 -0.003079 -0.000001 6.513741 0.020741 -0.834652 3.014176 0.062886 -1.668476 2.696231 0.052679 -1.668836 1.237536 12.073923 13.613702 -6.294624 -17.641144 20.354193 -160.069404 -72.050819 -21.877301 11.180474 54.769094 50.001233 -37.115521 -16.423951 1.504678 4.278808 -2.386931 9.789899 -160.495143 73.543406 21.459985 -2.765735 -60.661874 -29.537180 -42.842508 17.642256 -1.708080 3.090486 10.853672 -25.847519 
231.648710 0.000000 258.515000 0.000000 100.574252 0.000000 2.340708 89.408173 -0.050934 96.220469 -0.100492 177.989092 -169.223455 2.507997 -173.021710 -16.674833 -5.136441 -9.537993 89.354611 6.890926 2.175207 21.454557 0.003120 0.000020 152.446079 6.797394 177.479447 -60.834582 -0.680928 8.803843 68.988025 -3.179535 9.324476 21.454553 -0.003100 0.000002 6.672316 0.127292 -1.050647 3.329202 0.284342 -2.097258 3.011327 0.271541 -2.098925 0.717741 13.129247 13.498681 -7.034224 -17.910870 20.667135 -161.022201 -72.227618 -20.895514 10.164245 55.567171 48.584935 -39.337935 -17.076643 1.603523 3.225008 -4.096631 11.889705 -158.813182 72.921941 23.195297 0.720836 -60.760509 -32.776852 -40.260342 17.061842 -1.599154 4.023513 10.454528 -22.612509 
231.600001 0.000000 256.147930 0.000000 103.088525 0.000000 2.201365 89.379318 -0.098243 95.886659 0.525678 178.176027 -167.925009 1.274786 -171.509110 -15.904369 -5.215032 -8.913075 89.594644 6.478134 2.188478 21.454560 0.003112 0.000019 152.040762 5.666112 176.105062 -51.668697 -0.761167 8.330538 68.718745 -3.459008 7.499829 21.454551 -0.003093 0.000004 6.764801 0.286100 -1.229888 3.510285 0.608892 -2.450692 3.192494 0.593946 -2.454336 0.489799 13.815559 13.322203 -7.620703 -18.198600 20.817438 -161.664116 -72.537900 -20.231999 9.329412 56.782306 47.013835 -41.853808 -17.636827 1.708135 2.605728 -6.054952 13.796888 -157.693495 72.618394 24.350393 2.993282 -60.342522 -35.474835 -36.478500 16.223625 -1.448982 5.119561 7.720676 -19.775363 
